<svg width="22" height="22" viewBox="0 0 22 22" fill="none" xmlns="http://www.w3.org/2000/svg">
<path d="M3.22222 6H18.7778M3.22222 6C2.63285 6 2.06762 5.73661 1.65087 5.26777C1.23413 4.79893 1 4.16304 1 3.5C1 2.83696 1.23413 2.20107 1.65087 1.73223C2.06762 1.26339 2.63285 1 3.22222 1H18.7778C19.3671 1 19.9324 1.26339 20.3491 1.73223C20.7659 2.20107 21 2.83696 21 3.5C21 4.16304 20.7659 4.79893 20.3491 5.26777C19.9324 5.73661 19.3671 6 18.7778 6M3.22222 6V18.5C3.22222 19.163 3.45635 19.7989 3.8731 20.2678C4.28984 20.7366 4.85507 21 5.44444 21H16.5556C17.1449 21 17.7102 20.7366 18.1269 20.2678C18.5437 19.7989 18.7778 19.163 18.7778 18.5V6M8.77778 11H13.2222" stroke="white" stroke-linecap="round" stroke-linejoin="round"/>
</svg>
