<svg width="6" height="8" viewBox="0 0 6 8" fill="none" xmlns="http://www.w3.org/2000/svg">
<path d="M1.0052 0.250024C1.21659 0.248553 1.41261 0.313897 1.5524 0.421401L5.55088 3.62396C5.55089 3.62397 5.5509 3.62398 5.55091 3.62398C5.68793 3.73378 5.75 3.86924 5.75 3.99516C5.75 4.12109 5.68793 4.25655 5.55091 4.36634C5.5509 4.36635 5.55089 4.36636 5.55088 4.36637L1.55065 7.57033C1.41211 7.68126 1.2145 7.75 0.999858 7.75C0.785213 7.75 0.587608 7.68126 0.449065 7.57033C0.31206 7.46054 0.25 7.32509 0.25 7.19917C0.25 7.07324 0.312077 6.93777 0.449122 6.82797L3.74233 4.19029L3.98595 3.99516L3.74233 3.80004L0.450885 1.16377C0.319466 1.05415 0.260753 0.920779 0.262098 0.796753C0.263451 0.672084 0.325709 0.538317 0.461276 0.429735C0.598216 0.320054 0.793009 0.251501 1.0052 0.250024Z" fill="white" stroke="#FFFDFD" stroke-width="0.5"/>
</svg>
