<svg width="16" height="16" viewBox="0 0 16 16" fill="none" xmlns="http://www.w3.org/2000/svg">
<path d="M8 0C3.58172 0 0 3.58172 0 8C0 12.4183 3.58172 16 8 16C12.4183 16 16 12.4183 16 8C16 3.58172 12.4183 0 8 0ZM10.6915 2.49899C10.926 2.50084 11.1537 2.58735 11.3257 2.75937L12.657 4.09017C13.025 4.45819 12.9998 5.07823 12.6018 5.4772C12.2028 5.8762 11.5818 5.89992 11.2148 5.53293L9.88397 4.20213C9.51596 3.83513 9.54169 3.21311 9.93971 2.81511C10.1512 2.60312 10.4257 2.49689 10.6915 2.49899ZM8.49797 4.25735L11.1601 6.91895L6.83384 11.2442L4.17173 8.58207L8.49797 4.25735ZM3.48075 9.08612L6.28875 11.8941L2.77761 12.5973L3.48075 9.08612Z" fill="black"/>
</svg>
