<svg width="22" height="20" viewBox="0 0 22 20" fill="none" xmlns="http://www.w3.org/2000/svg">
<path d="M1 10L3.22222 8M3.22222 8L11 1L18.7778 8M3.22222 8V18C3.22222 18.2652 3.33929 18.5196 3.54766 18.7071C3.75603 18.8946 4.03865 19 4.33333 19H7.66667M18.7778 8L21 10M18.7778 8V18C18.7778 18.2652 18.6607 18.5196 18.4523 18.7071C18.244 18.8946 17.9614 19 17.6667 19H14.3333M7.66667 19C7.96135 19 8.24397 18.8946 8.45234 18.7071C8.66071 18.5196 8.77778 18.2652 8.77778 18V14C8.77778 13.7348 8.89484 13.4804 9.10322 13.2929C9.31159 13.1054 9.5942 13 9.88889 13H12.1111C12.4058 13 12.6884 13.1054 12.8968 13.2929C13.1052 13.4804 13.2222 13.7348 13.2222 14V18C13.2222 18.2652 13.3393 18.5196 13.5477 18.7071C13.756 18.8946 14.0386 19 14.3333 19M7.66667 19H14.3333" stroke="white" stroke-linecap="round" stroke-linejoin="round"/>
</svg>
