<svg width="22" height="20" viewBox="0 0 22 20" fill="none" xmlns="http://www.w3.org/2000/svg">
<path d="M9.88889 14.5L5.44444 10M5.44444 10L9.88889 5.5M5.44444 10H21M15.4444 14.5V15.625C15.4444 16.5201 15.0933 17.3786 14.4681 18.0115C13.843 18.6444 12.9952 19 12.1111 19H4.33333C3.44928 19 2.60143 18.6444 1.97631 18.0115C1.35119 17.3786 1 16.5201 1 15.625V4.375C1 3.47989 1.35119 2.62145 1.97631 1.98851C2.60143 1.35558 3.44928 1 4.33333 1H12.1111C12.9952 1 13.843 1.35558 14.4681 1.98851C15.0933 2.62145 15.4444 3.47989 15.4444 4.375V5.5" stroke="white" stroke-linecap="round" stroke-linejoin="round"/>
</svg>
