<svg width="22" height="25" viewBox="0 0 22 25" fill="none" xmlns="http://www.w3.org/2000/svg">
<path d="M6.71429 3.55556H3.85714C3.09938 3.55556 2.37266 3.8248 1.83684 4.30406C1.30102 4.78332 1 5.43334 1 6.11111V21.4444C1 22.1222 1.30102 22.7722 1.83684 23.2515C2.37266 23.7308 3.09938 24 3.85714 24H18.1429C18.9006 24 19.6273 23.7308 20.1632 23.2515C20.699 22.7722 21 22.1222 21 21.4444V6.11111C21 5.43334 20.699 4.78332 20.1632 4.30406C19.6273 3.8248 18.9006 3.55556 18.1429 3.55556H15.2857M6.71429 3.55556C6.71429 4.23333 7.01531 4.88335 7.55112 5.36261C8.08694 5.84187 8.81367 6.11111 9.57143 6.11111H12.4286C13.1863 6.11111 13.9131 5.84187 14.4489 5.36261C14.9847 4.88335 15.2857 4.23333 15.2857 3.55556M6.71429 3.55556C6.71429 2.87778 7.01531 2.22776 7.55112 1.7485C8.08694 1.26925 8.81367 1 9.57143 1H12.4286C13.1863 1 13.9131 1.26925 14.4489 1.7485C14.9847 2.22776 15.2857 2.87778 15.2857 3.55556M11 12.5H15.2857M11 17.6111H15.2857M6.71429 12.5H6.72857M6.71429 17.6111H6.72857" stroke="white" stroke-linecap="round" stroke-linejoin="round"/>
</svg>
